<?xml version="1.0" encoding="utf-8"?>
<!-- Generator: Adobe Illustrator 17.1.0, SVG Export Plug-In . SVG Version: 6.00 Build 0)  -->
<!DOCTYPE svg PUBLIC "-//W3C//DTD SVG 1.1//EN" "http://www.w3.org/Graphics/SVG/1.1/DTD/svg11.dtd">
<svg version="1.1" id="Layer_1" xmlns="http://www.w3.org/2000/svg" xmlns:xlink="http://www.w3.org/1999/xlink" x="0px" y="0px"
	 width="60px" height="60px" viewBox="0 0 60 60" enable-background="new 0 0 60 60" xml:space="preserve">
<g>
	<path fill="#0067C5" d="M21.7,40.7c5.3,0,9.6-4.3,9.6-9.6s-4.3-9.6-9.6-9.6c-5.3,0-9.6,4.3-9.6,9.6C12,36.4,16.4,40.7,21.7,40.7z"
		/>
	<path fill="#0067C5" d="M28.1,43.7H16.4c-7.9,0-13,4.2-13,13.3h36.5C39.9,57,40.1,43.7,28.1,43.7z"/>
	<circle fill="#0067C5" cx="38.1" cy="22.3" r="2.3"/>
	<circle fill="#0067C5" cx="34.4" cy="25" r="1.6"/>
	<path fill="#0067C5" d="M44.1,3.1c-7.3,0-13.2,3.8-13.2,8.4S36.8,20,44.1,20s13.2-3.8,13.2-8.4S51.4,3.1,44.1,3.1z M43.4,15.3h-2.8
		v-1.1h2.8V15.3z M43.4,13.2h-2.8V12h2.8V13.2z M43.4,11.1h-2.8V10h2.8V11.1z M47.7,15.3h-2.8v-1.1h2.8V15.3z M47.7,13.2h-2.8V12
		h2.8V13.2z M47.7,11.1h-2.8V10h2.8V11.1z M47.7,9h-2.8V7.9h2.8V9z"/>
</g>
</svg>
