<?xml version="1.0" encoding="utf-8"?>
<!-- Generator: Adobe Illustrator 17.1.0, SVG Export Plug-In . SVG Version: 6.00 Build 0)  -->
<!DOCTYPE svg PUBLIC "-//W3C//DTD SVG 1.1//EN" "http://www.w3.org/Graphics/SVG/1.1/DTD/svg11.dtd">
<svg version="1.1" id="Layer_1" xmlns="http://www.w3.org/2000/svg" xmlns:xlink="http://www.w3.org/1999/xlink" x="0px" y="0px"
	 width="60px" height="60px" viewBox="0 0 60 60" enable-background="new 0 0 60 60" xml:space="preserve">
<g>
	<g>
		<rect x="10.3" y="16.7" fill="#0067C5" width="2.8" height="1.1"/>
		<rect x="10.3" y="18.8" fill="#0067C5" width="2.8" height="1.1"/>
		<rect x="10.3" y="20.9" fill="#0067C5" width="2.8" height="1.1"/>
	</g>
	<g>
		<rect x="14.6" y="8.4" fill="#0067C5" width="2.8" height="1.1"/>
		<rect x="14.6" y="10.5" fill="#0067C5" width="2.8" height="1.1"/>
		<rect x="14.6" y="12.6" fill="#0067C5" width="2.8" height="1.1"/>
		<rect x="14.6" y="14.6" fill="#0067C5" width="2.8" height="1.1"/>
		<rect x="14.6" y="16.7" fill="#0067C5" width="2.8" height="1.1"/>
		<rect x="14.6" y="18.8" fill="#0067C5" width="2.8" height="1.1"/>
		<rect x="14.6" y="20.9" fill="#0067C5" width="2.8" height="1.1"/>
	</g>
	<g>
		<rect x="23.2" y="12.6" fill="#0067C5" width="2.8" height="1.1"/>
		<rect x="23.2" y="14.6" fill="#0067C5" width="2.8" height="1.1"/>
		<rect x="23.2" y="16.7" fill="#0067C5" width="2.8" height="1.1"/>
		<rect x="23.2" y="18.8" fill="#0067C5" width="2.8" height="1.1"/>
		<rect x="23.2" y="20.9" fill="#0067C5" width="2.8" height="1.1"/>
	</g>
	<g>
		<rect x="18.9" y="20.9" fill="#0067C5" width="2.8" height="1.1"/>
	</g>
	<g>
		<rect x="27.5" y="14.6" fill="#0067C5" width="2.8" height="1.1"/>
		<rect x="27.5" y="16.7" fill="#0067C5" width="2.8" height="1.1"/>
		<rect x="27.5" y="18.8" fill="#0067C5" width="2.8" height="1.1"/>
		<rect x="27.5" y="20.9" fill="#0067C5" width="2.8" height="1.1"/>
	</g>
	<g>
		<rect x="31.8" y="16.7" fill="#0067C5" width="2.8" height="1.1"/>
		<rect x="31.8" y="18.8" fill="#0067C5" width="2.8" height="1.1"/>
		<rect x="31.8" y="20.9" fill="#0067C5" width="2.8" height="1.1"/>
	</g>
	<path fill="#0067C5" d="M41.7,26.7H3.3V3.7h38.4V26.7z M5,25H40V5.5H5V25z"/>
	<g>
		
			<rect x="31.7" y="8.6" transform="matrix(0.4498 -0.8931 0.8931 0.4498 2.72 37.8502)" fill="#0067C5" width="0.8" height="16.2"/>
		<circle fill="#0067C5" cx="48.3" cy="14" r="4.3"/>
		<path fill="#0067C5" d="M57.3,38.4c-0.3-3-2-14.3-3-16c-1.3-2.4-4-2.2-4-2.2l-3.8,0.1c0,0-1.9,0.2-5.6-0.9c-1.7-0.5-8-3.8-8-3.8
			c-0.9-0.5-1.8-0.4-2.3,0.4c-0.4,0.7-0.2,1.6,0.7,2.1c0,0,10.1,5.4,11.1,6.2c0.8,0.7,1.3,1.5,1.3,3.3c0,0,0,26.7,0,26.7
			c0,1.1,0.9,2,2,2c1.1,0,2-0.9,2-2v0V42.8v-4.9v-0.9c0-0.4,0.3-0.7,0.7-0.7c0.4,0,0.7,0.3,0.7,0.7v0.9v4.9v11.4v0c0,1.1,0.9,2,2,2
			c1.1,0,2-0.9,2-2V30.9c0.4,2.3,1.4,7.3,1.5,7.7c0.2,1.1,0.9,1.7,1.8,1.6C57.1,40,57.4,39.2,57.3,38.4z"/>
	</g>
</g>
</svg>
