<?xml version="1.0" encoding="utf-8"?>
<!-- Generator: Adobe Illustrator 17.1.0, SVG Export Plug-In . SVG Version: 6.00 Build 0)  -->
<!DOCTYPE svg PUBLIC "-//W3C//DTD SVG 1.1//EN" "http://www.w3.org/Graphics/SVG/1.1/DTD/svg11.dtd">
<svg version="1.1" id="Layer_1" xmlns="http://www.w3.org/2000/svg" xmlns:xlink="http://www.w3.org/1999/xlink" x="0px" y="0px"
	 width="60px" height="60px" viewBox="0 0 60 60" enable-background="new 0 0 60 60" xml:space="preserve">
<path fill="#C30000" d="M56.2,22.7c-0.2-0.4-0.7-0.5-1.1-0.3c-0.3,0.2-0.7,0.4-1,0.5c0.2-0.8,0.2-1.6-0.3-2.3
	c-0.4-0.7-1-1.1-1.8-1.2c-0.7-0.1-1.5,0.1-2.1,0.6c-0.5,0.5-0.9,1.3-0.8,2c0,0.8,0.5,1.5,1.2,2c0.1,0.1,0.3,0.2,0.5,0.3
	c-0.5,0.3-1,0.4-1.3,0.5c-2.7-6.3-11-11-20.9-11c-4.4,0-8.5,0.9-11.9,2.5l0,0c-0.1,0-3.7-3.9-7.2-2.3c0,0,3.3,2.8,2.4,5.2l0,0
	c-1.2,1-2.3,2.2-3.1,3.5l0,0c0,0-0.9,1.5-3.4,1.7S2,25,2.4,27.8C3.2,33.6,14,39.4,14,39.4c0.3,0.2,0.6,0.3,0.8,0.5v8.8h4.4l0.9-6.4
	c6.1,2.2,13.3,1.9,18.8,0.3v6.1h4.4l1-9.1c3.7-2.7,5.9-6.4,5.9-10.5c0-1-0.1-1.9-0.4-2.8c0.5-0.1,1.1-0.3,1.7-0.7
	c0.4-0.2,0.8-0.5,1.1-0.8c0.9,0,1.9-0.3,3.1-1.1C56.3,23.5,56.5,23,56.2,22.7z M13,26.4c-1,0-1.8-0.8-1.8-1.8s0.8-1.8,1.8-1.8
	s1.8,0.8,1.8,1.8C14.7,25.7,14,26.4,13,26.4z M35.8,16.9c-0.1,0.2-0.2,0.3-0.4,0.3c-0.1,0-0.1,0-0.2,0c-5.3-2.1-10.7-0.5-10.7-0.5
	c-0.2,0.1-0.5-0.1-0.6-0.3c-0.1-0.2,0.1-0.5,0.3-0.6c0.2-0.1,5.7-1.7,11.3,0.5C35.7,16.4,35.9,16.7,35.8,16.9z M52.2,23.2
	c-0.3-0.1-0.6-0.2-0.9-0.4c-0.3-0.2-0.5-0.5-0.5-0.8s0.1-0.6,0.3-0.7c0.2-0.2,0.4-0.3,0.7-0.3h0.1c0.3,0,0.5,0.2,0.6,0.5
	C52.9,22,52.6,22.6,52.2,23.2z"/>
</svg>
