<?xml version="1.0" encoding="utf-8"?>
<!-- Generator: Adobe Illustrator 17.1.0, SVG Export Plug-In . SVG Version: 6.00 Build 0)  -->
<!DOCTYPE svg PUBLIC "-//W3C//DTD SVG 1.1//EN" "http://www.w3.org/Graphics/SVG/1.1/DTD/svg11.dtd">
<svg version="1.1" id="Layer_1" xmlns="http://www.w3.org/2000/svg" xmlns:xlink="http://www.w3.org/1999/xlink" x="0px" y="0px"
	 width="60px" height="60px" viewBox="0 0 60 60" enable-background="new 0 0 60 60" xml:space="preserve">
<g>
	<path fill="#C30000" d="M44.4,28.7c0,4.1-0.6,7-1.1,9.4c-0.5,2.6-0.8,4.5-0.3,6.1c1.2,3.7,1.5,5,1.5,7h9.2c0-0.1-0.3-1.2-0.3-3.2
		c0-3.2,0.8-6.6,2.5-10.2c0.5-1.1,1-2.2,1-3.3c0-0.8-0.3-1.6-0.9-2.3c-0.8-0.9-3.1-3.4-4-4.3v4.7c0,0.5-0.1,1.4-0.7,1.9
		C51,35,50.5,35.2,50,35.1c-0.5,0-2-0.1-2-6v-0.3v-0.6c-0.1-1.9-0.1-3.1-0.9-4.1c-0.4-0.6-1-1-1.5-1c-0.7,0-1.3,0.3-1.3,2.3
		c0,0.4,0,0.8,0,1.3c0,0.3,0,0.6,0,0.9C44.4,27.9,44.4,28.3,44.4,28.7z"/>
	<path fill="#C30000" d="M33.7,14H24l-1.6-4.1h-7.5V14l-1.6-4.1H5.6V14H2.9v32.1h19.8h11h8.9c0-0.4-0.5-1.1-0.9-3.2
		c-0.3-2.1,0.9-7.1,0.9-7.1c0.4-2.2,0.7-4.9,0.6-8.3c0-0.3,0-0.6,0-0.9c0-0.5,0-0.9,0-1.3c0-2.3,0.8-3.5,2.5-3.5
		c0.9,0,1.8,0.6,2.5,1.5c0.9,1.3,1,2.7,1.1,4.8c0,0,0,5.9,1.2,5.7c0.3-0.1,0.4-0.7,0.4-1.1V25l0,0v-3.8v-3.7V14H33.7z"/>
</g>
</svg>
