<?xml version="1.0" encoding="utf-8"?>
<!-- Generator: Adobe Illustrator 17.1.0, SVG Export Plug-In . SVG Version: 6.00 Build 0)  -->
<!DOCTYPE svg PUBLIC "-//W3C//DTD SVG 1.1//EN" "http://www.w3.org/Graphics/SVG/1.1/DTD/svg11.dtd">
<svg version="1.1" id="Layer_1" xmlns="http://www.w3.org/2000/svg" xmlns:xlink="http://www.w3.org/1999/xlink" x="0px" y="0px"
	 width="60px" height="60px" viewBox="0 0 60 60" enable-background="new 0 0 60 60" xml:space="preserve">
<path fill="#C30000" d="M41.4,28.2c-1.1,0-1.9,0.9-1.9,1.9v2.6c0,0.2-0.2,0.4-0.4,0.4c-0.2,0-0.4-0.2-0.4-0.4l0,0v-5.4
	c0-1.1-0.9-1.9-1.9-1.9s-1.9,0.9-1.9,1.9v5.2c-0.1,0.2-0.2,0.4-0.5,0.4c-0.3,0-0.5-0.2-0.5-0.5l0,0v-7.3c0-1.1-0.9-1.9-1.9-1.9
	c-1.1,0-1.9,0.9-1.9,1.9v6.6l0,0c0,0.3-0.3,0.6-0.6,0.6s-0.6-0.3-0.6-0.6l0,0V16.4c0-1.1-0.9-1.9-1.9-1.9S25,15.3,25,16.4v21.3
	c0,0.3-0.2,0.5-0.5,0.5c-0.3,0-0.5-0.2-0.5-0.5v-8.2c0-1.1-0.9-1.9-1.9-1.9c-1.1,0-1.9,0.9-1.9,1.9v10.3v0.6v4.9l7.3,6.6v5.8h15.9
	V55V33.4v-3.3C43.4,29.1,42.5,28.2,41.4,28.2z"/>
<path fill="#C30000" d="M31.3,7c-0.1-0.5-0.7-3.4-4.3-3.2c-2.8,0.2-4.9,2.6-6.7,4.8c-1.5,1.7-2.8,3.4-4.1,3.2
	c-0.9-0.1-1.4-1-1.5-2.4l-0.9,0c0.1,2.1,1.2,3,2.2,3.2c0.1,0,0.2,0,0.4,0c1.6,0,3.1-1.7,4.6-3.5c1.7-2,3.6-4.3,6.1-4.5
	c2.7-0.2,3.2,1.8,3.3,2.4c-4.4,0.3-8,3.9-8,8.4v11.1c0.6,0.1,1.1,0.3,1.5,0.6V16.4c0-1.7,1.4-3,3-3c1.7,0,3,1.4,3,3v6.5
	c0.5-0.5,1.2-0.8,2-0.8c1.6,0,2.9,1.3,3,2.9c0.5-0.4,1.1-0.6,1.8-0.6c1.1,0,2,0.6,2.5,1.4l0-10.4C39.3,10.9,35.7,7.2,31.3,7z
	 M31.7,11.2c0,0.5-0.4,0.9-0.9,0.9c-0.5,0-0.9-0.4-0.9-0.9V9.4c0-0.5,0.4-0.9,0.9-0.9c0.5,0,0.9,0.4,0.9,0.9V11.2z"/>
<path fill="#FFFFFF" d="M20.6,17.1"/>
</svg>
